<svg width="24" height="24" viewBox="0 0 24 24" fill="none" xmlns="http://www.w3.org/2000/svg">
<path d="M23.2496 4.75563L18.6174 12.0348L15.9342 9.68699L18 7.19949L13.5991 7.19933L19.9409 2.52344L23.2496 4.75563Z" fill="#049A51"/>
<path d="M0.750599 4.75563L5.38279 12.0348L8.06613 9.68685L6.00023 7.19904L10.4009 7.19921L4.05931 2.52344L0.750599 4.75563Z" fill="#049A51"/>
<path d="M16.6321 17.7633L11.9999 22.6223L7.36768 17.7633L9.67249 11.6225L10.0146 10.7109H13.9851L14.3272 11.6226L16.6321 17.7633Z" fill="#0073E6"/>
<path fill-rule="evenodd" clip-rule="evenodd" d="M10.015 10.7109H13.9854L14.3276 11.6226L13.9854 12.0346H10.015L9.67285 11.6225L10.015 10.7109Z" fill="#681A00"/>
<path fill-rule="evenodd" clip-rule="evenodd" d="M13.3235 7.4026L15.9342 9.687L14.3274 11.6218L13.9853 10.7102H10.0148L9.67268 11.6218L8.06592 9.68686L10.6765 7.4026L10.4007 7.19922L13.5992 7.19934L13.3235 7.4026Z" fill="#D63500"/>
<path fill-rule="evenodd" clip-rule="evenodd" d="M15.9342 9.68688L13.3235 7.40248L13.5991 7.19922L18 7.19938L15.9342 9.68688Z" fill="#D63500"/>
<path fill-rule="evenodd" clip-rule="evenodd" d="M10.6765 7.20353L8.0659 9.48766L5.99998 7L10.4007 7.00016L10.6765 7.20353Z" fill="#D63500"/>
</svg>
