<svg width="24" height="24" viewBox="0 0 24 24" fill="none" xmlns="http://www.w3.org/2000/svg">
<path fill-rule="evenodd" clip-rule="evenodd" d="M17.527 13.7484C19.1624 10.7178 18.7 6.85417 16.14 4.29427C13.0158 1.17025 7.95052 1.17025 4.82633 4.29427C1.70215 7.41862 1.70215 12.4837 4.82633 15.6081C7.38607 18.168 11.249 18.6302 14.2796 16.9954L12.6312 15.347L15.8784 12.0996L17.527 13.7484Z" fill="#0073E6"/>
<path fill-rule="evenodd" clip-rule="evenodd" d="M14.2798 16.9941L20.1738 22.888L23.4211 19.641L17.5272 13.7471C17.1668 14.415 16.7044 15.0426 16.1401 15.6068C15.5757 16.1712 14.9481 16.6338 14.2798 16.9941Z" fill="#FA801C"/>
<path d="M17.5273 13.7491C17.1669 14.4171 16.7045 15.0447 16.1402 15.6088C15.5758 16.1733 14.9482 16.6358 14.2799 16.9962L12.6314 15.3477L15.8787 12.1003L17.5273 13.7491Z" fill="#681A00"/>
</svg>
