<svg width="24" height="24" viewBox="0 0 24 24" fill="none" xmlns="http://www.w3.org/2000/svg">
<path fill-rule="evenodd" clip-rule="evenodd" d="M16.2182 11.526C17.113 10.5254 17.6571 9.20447 17.6571 7.7565C17.6571 4.63229 15.1244 2.09961 12.0002 2.09961C8.87594 2.09961 6.34326 4.63229 6.34326 7.7565C6.34326 9.20447 6.88728 10.5254 7.78208 11.526C9.06171 10.9224 10.4915 10.5849 12.0002 10.5849C13.5088 10.5849 14.9386 10.9224 16.2182 11.526Z" fill="#0073E6"/>
<path fill-rule="evenodd" clip-rule="evenodd" d="M21.8996 20.4839C21.8996 20.9641 21.8654 21.4363 21.7993 21.8982H2.20072C2.13465 21.4363 2.10046 20.9641 2.10046 20.4839C2.10046 16.5252 4.42414 13.1092 7.78195 11.5254C8.81782 12.6837 10.3238 13.4128 12 13.4128C13.6763 13.4128 15.1822 12.6837 16.2181 11.5254C19.5759 13.1092 21.8996 16.5252 21.8996 20.4839Z" fill="#BF63F3"/>
<path fill-rule="evenodd" clip-rule="evenodd" d="M16.2179 11.5289C15.182 12.6873 13.6761 13.4163 11.9998 13.4163C10.3236 13.4163 8.8176 12.6873 7.78174 11.5289C9.06136 10.9254 10.4912 10.5879 11.9998 10.5879C13.5084 10.5879 14.9383 10.9254 16.2179 11.5289Z" fill="#681A00"/>
</svg>
